<svg xmlns="http://www.w3.org/2000/svg" viewBox="0 0 512 512">
  <defs>
    <!-- Deep charcoal gradient for the icon tile -->
    <linearGradient id="tileGradient" x1="0%" y1="0%" x2="0%" y2="100%">
      <stop offset="0%" style="stop-color:#2D2D2D;stop-opacity:1" />
      <stop offset="100%" style="stop-color:#1A1A1A;stop-opacity:1" />
    </linearGradient>
    
    <!-- Subtle inner glow/border -->
    <filter id="innerGlow" x="-20%" y="-20%" width="140%" height="140%">
      <feGaussianBlur in="SourceAlpha" stdDeviation="4" result="blur" />
      <feOffset dx="0" dy="2" />
      <feComposite in2="SourceAlpha" operator="arithmetic" k2="-1" k3="1" result="shadow" />
      <feColorMatrix type="matrix" values="0 0 0 0 1  0 0 0 0 1  0 0 0 0 1  0 0 0 0 0.05 0" />
    </filter>

    <!-- Brand blue for the checkmark -->
    <linearGradient id="checkmarkBlue" x1="0%" y1="0%" x2="0%" y2="100%">
      <stop offset="0%" style="stop-color:#60A5FA;stop-opacity:1" />
      <stop offset="100%" style="stop-color:#3B82F6;stop-opacity:1" />
    </linearGradient>
  </defs>

  <!-- Main rounded square tile (Desktop Dock Style) -->
  <rect x="48" y="48" width="416" height="416" rx="96" fill="url(#tileGradient)" stroke="#404040" stroke-width="4" filter="url(#innerGlow)" />
  
  <!-- Primary Brand Symbol: The Checkmark -->
  <path d="M160 256L224 320L352 192" 
        stroke="url(#checkmarkBlue)" 
        stroke-width="48" 
        stroke-linecap="round" 
        stroke-linejoin="round" 
        fill="none" />

  <!-- Compact Date Chip (MM-DD) -->
  <rect x="256" y="340" width="112" height="48" rx="16" fill="#262626" stroke="#404040" stroke-width="2" />
  <text x="312" y="372" font-family="Inter, sans-serif" font-size="22" font-weight="700" fill="#A3A3A3" text-anchor="middle">10-06</text>

  <!-- Priority Flag Accent (Red) -->
  <path d="M128 340V388M128 348C128 348 140 342 152 348C164 354 176 348 176 348V378C176 378 164 384 152 378C140 372 128 378 128 378" 
        stroke="#EF4444" stroke-width="8" stroke-linecap="round" stroke-linejoin="round" fill="none" />

</svg>